<!--?xml version="1.0" encoding="UTF-8" standalone="no"?-->
<!-- Created with Inkscape (http://www.inkscape.org/) -->

<svg xmlns:dc="http://purl.org/dc/elements/1.1/" xmlns:cc="http://creativecommons.org/ns#" xmlns:rdf="http://www.w3.org/1999/02/22-rdf-syntax-ns#" xmlns:svg="http://www.w3.org/2000/svg" xmlns:sodipodi="http://sodipodi.sourceforge.net/DTD/sodipodi-0.dtd" xmlns:inkscape="http://www.inkscape.org/namespaces/inkscape" width="126mm" height="39mm" viewBox="0 0 42.956207 13.327243" version="1.1" id="svg8" inkscape:version="0.92.4 (5da689c313, 2019-01-14)" sodipodi:docname="100path.svg" style="">
  <defs id="defs2"></defs>
  <sodipodi:namedview id="base" pagecolor="#ffffff" bordercolor="#666666" borderopacity="1.0" inkscape:pageopacity="0.0" inkscape:pageshadow="2" inkscape:zoom="0.7" inkscape:cx="73.802858" inkscape:cy="-98.01475" inkscape:document-units="mm" inkscape:current-layer="layer1" showgrid="false" fit-margin-top="0" fit-margin-left="0" fit-margin-right="0" fit-margin-bottom="0" inkscape:window-width="3200" inkscape:window-height="1644" inkscape:window-x="-16" inkscape:window-y="-16" inkscape:window-maximized="1"></sodipodi:namedview>
  <metadata id="metadata5">
    <rdf:rdf>
      <cc:work rdf:about="">
        <dc:format>image/svg+xml</dc:format>
        <dc:type rdf:resource="http://purl.org/dc/dcmitype/StillImage"></dc:type>
        <dc:title></dc:title>
      </cc:work>
    </rdf:rdf>
  </metadata>
  <g inkscape:label="Layer 1" inkscape:groupmode="layer" id="layer1" transform="translate(-82.726379,-133.92607)">
    <text xml:space="preserve" style="font-style:normal;font-variant:normal;font-weight:normal;font-stretch:normal;font-size:10.58333302px;line-height:1.25;font-family:'Sister Spray';-inkscape-font-specification:'Sister Spray, Normal';font-variant-ligatures:normal;font-variant-caps:normal;font-variant-numeric:normal;text-align:center;letter-spacing:0px;word-spacing:0px;writing-mode:lr-tb;text-anchor:middle;fill:none;fill-opacity:1;stroke:white;stroke-width:0.26458332" x="100.05703" y="144.56624" id="text821"><tspan sodipodi:role="line" id="tspan819" x="100.05703" y="154.11935" style="stroke-width:0.26458332"></tspan></text>
    <text xml:space="preserve" style="font-style:normal;font-variant:normal;font-weight:normal;font-stretch:normal;font-size:16.93333244px;line-height:1.25;font-family:'Sister Spray';-inkscape-font-specification:'Sister Spray, Normal';font-variant-ligatures:normal;font-variant-caps:normal;font-variant-numeric:normal;font-feature-settings:normal;text-align:center;letter-spacing:0px;word-spacing:0px;writing-mode:lr-tb;text-anchor:middle;fill:none;fill-opacity:1;stroke:white;stroke-width:0.26458332" x="96.751572" y="160.158" id="text829"><tspan sodipodi:role="line" id="tspan827" x="96.751572" y="175.44299" style="stroke-width:0.26458332"></tspan></text>
    <text xml:space="preserve" style="font-style:normal;font-variant:normal;font-weight:normal;font-stretch:normal;font-size:10.58333302px;line-height:1.25;font-family:'Street Soul';-inkscape-font-specification:'Street Soul, Normal';font-variant-ligatures:normal;font-variant-caps:normal;font-variant-numeric:normal;font-feature-settings:normal;text-align:center;letter-spacing:0px;word-spacing:0px;writing-mode:lr-tb;text-anchor:middle;fill:none;fill-opacity:1;stroke:white;stroke-width:0.26458332" x="135.23837" y="137.17282" id="text857"><tspan sodipodi:role="line" id="tspan855" x="135.23837" y="146.70581" style="stroke-width:0.26458332"></tspan></text>
    <g aria-label="KEEP IT 100" style="font-style:normal;font-variant:normal;font-weight:normal;font-stretch:normal;font-size:10.58333302px;line-height:1.25;font-family:'Street Soul';-inkscape-font-specification:'Street Soul, Normal';font-variant-ligatures:normal;font-variant-caps:normal;font-variant-numeric:normal;font-feature-settings:normal;text-align:center;letter-spacing:0px;word-spacing:0px;writing-mode:lr-tb;text-anchor:middle;fill:none;fill-opacity:1;stroke:white;stroke-width:0.26458332" id="text861">
      <path d="m 85.163615,134.51932 q 0.356568,0.5581 0.573609,1.37459 0.217041,0.81132 0.330729,1.51929 0.155029,-0.19637 0.232544,-0.40308 0.08268,-0.2067 0.222209,-0.65629 0.170532,-0.54777 0.279052,-0.91984 0.113688,-0.37207 0.377238,-0.51676 0.310059,-0.17054 0.325562,0.29972 0.0155,0.47026 -0.07752,1.02836 -0.124023,0.70797 -0.289388,0.95601 0.196371,-0.0517 0.45992,-0.18603 0.268718,-0.13436 0.532268,-0.19637 0.248046,-0.0672 0.475423,0 0.232544,0.0672 0.253214,0.28939 0.0052,0.0982 -0.08268,0.64078 -0.08268,0.54261 -0.160197,1.12655 -0.07751,0.58394 -0.09819,1.01803 -0.02067,0.42891 0.118856,0.29972 0.490926,-0.44959 0.707967,-0.42891 0.217041,0.0207 -0.04134,0.42891 -0.113689,0.1757 -0.24288,0.38241 -0.129191,0.20153 -0.28422,0.32556 -0.253215,0.26355 -0.604614,0.16019 -0.346232,-0.10335 -0.54777,-0.33073 -0.180868,-0.1912 -0.108521,-0.76997 0.07752,-0.57878 0.180868,-1.15756 0.103352,-0.58394 0.118855,-0.97151 0.0155,-0.39274 -0.279052,-0.21188 -0.558106,0.26355 -0.816488,0.46509 -0.253214,0.19637 -0.501261,0.44442 0.0155,0.81132 -0.201538,1.70015 -0.217041,0.88884 -0.914673,0.6873 -0.242879,-0.0672 -0.232544,-0.38241 0.01033,-0.32039 0.07751,-0.5271 0.1757,-0.50126 0.258383,-1.22989 0.07751,-0.73381 0.05168,-1.48829 -0.03101,-0.75964 -0.1757,-1.44177 -0.144694,-0.68213 -0.423747,-1.09037 -0.325561,-0.47026 -0.06201,-0.57361 0.26355,-0.10852 0.56844,0.3359 z" style="stroke-width:0.26458332" id="path903" class="dUNpDLvF_0"></path>
      <path d="m 92.351807,138.92732 q -0.800985,0.0672 -1.596802,0.63562 -0.790649,0.56844 -1.18339,1.25057 -0.28422,0.49092 -0.625285,0.33589 -0.341064,-0.15503 -0.227376,-0.56844 0.113688,-0.48059 0.315226,-1.14205 0.201538,-0.66145 0.144694,-0.86299 -0.165364,0.093 -0.490926,0.25838 -0.325561,0.16536 -0.542602,-0.0982 -0.26355,-0.32039 0.155029,-0.5581 0.413411,-0.23771 0.925008,-0.48059 0.07752,-0.4961 -0.09302,-1.17822 -0.170532,-0.68213 -0.45992,-1.10588 -0.149862,-0.23254 -0.186035,-0.3669 -0.186035,-0.23255 -0.07235,-0.50126 0.10852,-0.26872 0.754476,0.12919 0.470255,0.20154 1.038696,0.35656 0.573608,0.14987 1.152384,-0.0879 0.423747,-0.18603 0.625285,-0.0827 0.206706,0.0982 -0.279052,0.45992 -0.465088,0.22738 -1.012858,0.28422 -0.547771,0.0568 -1.260905,-0.14469 0.268717,0.5116 0.387573,0.80615 0.118856,0.28939 0.186035,1.14205 0.470256,-0.10852 1.152384,-0.13953 0.682129,-0.031 0.542603,0.28939 -0.03101,0.12919 -0.666626,0.20671 -0.63562,0.0723 -0.976685,0.35657 -0.0155,0.24804 -0.05168,0.62011 -0.03101,0.37207 -0.144694,0.60462 0.279053,-0.27906 1.157552,-0.58395 0.878499,-0.30489 1.193726,-0.25321 0.511596,0.0103 0.516764,0.26872 0.01033,0.25838 -0.377238,0.14986 z" style="stroke-width:0.26458332" id="path905" class="dUNpDLvF_1"></path>
      <path d="m 95.576416,138.92732 q -0.800984,0.0672 -1.596801,0.63562 -0.79065,0.56844 -1.183391,1.25057 -0.28422,0.49092 -0.625284,0.33589 -0.341065,-0.15503 -0.227377,-0.56844 0.113688,-0.48059 0.315226,-1.14205 0.201539,-0.66145 0.144694,-0.86299 -0.165364,0.093 -0.490926,0.25838 -0.325561,0.16536 -0.542602,-0.0982 -0.26355,-0.32039 0.155029,-0.5581 0.413412,-0.23771 0.925008,-0.48059 0.07752,-0.4961 -0.09302,-1.17822 -0.170533,-0.68213 -0.459921,-1.10588 -0.149861,-0.23254 -0.186035,-0.3669 -0.186035,-0.23255 -0.07235,-0.50126 0.108521,-0.26872 0.754476,0.12919 0.470256,0.20154 1.038696,0.35656 0.573609,0.14987 1.152385,-0.0879 0.423747,-0.18603 0.625285,-0.0827 0.206705,0.0982 -0.279053,0.45992 -0.465088,0.22738 -1.012858,0.28422 -0.54777,0.0568 -1.260905,-0.14469 0.268717,0.5116 0.387573,0.80615 0.118856,0.28939 0.186035,1.14205 0.470256,-0.10852 1.152385,-0.13953 0.682129,-0.031 0.542602,0.28939 -0.03101,0.12919 -0.666626,0.20671 -0.63562,0.0723 -0.976684,0.35657 -0.0155,0.24804 -0.05168,0.62011 -0.031,0.37207 -0.144694,0.60462 0.279053,-0.27906 1.157552,-0.58395 0.8785,-0.30489 1.193726,-0.25321 0.511597,0.0103 0.516764,0.26872 0.01034,0.25838 -0.377238,0.14986 z" style="stroke-width:0.26458332" id="path907" class="dUNpDLvF_2"></path>
      <path d="m 96.429077,140.47761 q -0.273885,0.58911 -0.614949,0.45475 -0.335897,-0.13436 -0.273886,-0.60978 0.04651,-0.55294 0.09302,-0.97668 0.05168,-0.42375 0.0052,-0.64596 -0.206706,-0.0413 -0.558106,-0.22738 -0.3514,-0.1912 -0.299723,-0.56327 0.04134,-0.26872 0.227376,-0.16536 0.180868,0.10335 0.61495,0.14469 -0.0155,-0.94568 -0.07751,-1.46244 -0.06201,-0.51677 -0.273885,-1.09037 -0.382406,-0.87334 -0.139526,-1.20407 0.222208,-0.29972 0.48059,-0.0672 0.258383,0.23254 0.568441,0.74414 0.578776,0.75964 1.085205,0.97151 0.511597,0.20671 0.961182,0.60978 0.614949,0.55811 0.490926,1.16789 -0.118856,0.60978 -0.583944,0.894 -0.465088,0.29456 -0.857828,0.3359 -0.387574,0.0362 -0.806153,-0.0103 0.01034,0.46508 0.05684,0.84232 0.04651,0.37207 -0.09818,0.85783 z m 1.224731,-2.58899 q 0.392741,-0.40824 0.237712,-0.68213 -0.155029,-0.27905 -0.656291,-0.50643 -0.496093,-0.23254 -0.878499,-0.64078 -0.382406,-0.40825 -0.248047,-0.23772 0.134359,0.17054 0.201538,0.82683 0.06718,0.65629 0.165365,1.33842 0.516764,0.0982 0.769979,0.0827 0.253214,-0.0207 0.408243,-0.18087 z" style="stroke-width:0.26458332" id="path909" class="dUNpDLvF_3"></path>
      <path d="m 102.75427,139.38207 q 0.0103,0.005 -0.0155,-0.15503 -0.0258,-0.16536 -0.0155,-0.16536 -0.15503,-1.05937 0.16536,-2.20659 0.1602,-0.46509 0.55294,-0.62011 0.39274,-0.15503 0.12402,0.52709 -0.2067,0.75965 -0.093,1.36943 0.11369,0.60978 0.27389,1.33325 0.34623,0.0465 0.7183,0.26872 0.37724,0.22221 0.66146,0.40308 0.72347,0.42374 0.39791,0.5271 -0.32556,0.0982 -0.57878,-0.0465 -0.39791,-0.20154 -0.86816,-0.31006 -0.47026,-0.11369 -0.81649,-0.13436 -0.35657,-0.0155 -0.48576,0.0517 -0.12402,0.062 -0.41858,0.19637 -0.1912,0.10335 -0.43925,0.18086 -0.24804,0.0724 -0.5271,-0.1912 -0.19637,-0.27388 0.0775,-0.48059 0.26872,-0.21187 0.5271,-0.30489 0.13436,-0.0672 0.26355,-0.10335 0.13436,-0.0413 0.49609,-0.13953 z m -0.42891,-4.34082 q 0.53227,-0.0465 1.04903,-0.15503 0.52193,-0.11369 0.88367,-0.41341 0.35656,-0.29972 0.62011,-0.29456 0.26872,0 -0.0879,0.49093 -0.37723,0.45992 -1.02836,0.82165 -0.64595,0.36174 -1.20923,0.47026 -0.51159,0.13436 -0.63562,-0.3669 -0.12402,-0.50126 0.40825,-0.55294 z" style="stroke-width:0.26458332" id="path911" class="dUNpDLvF_4"></path>
      <path d="m 108.26298,137.53205 q 0.1602,0.34107 0.0724,0.62012 -0.0827,0.27389 -0.37207,-0.0672 -0.18087,-0.19637 -0.27906,-0.41858 -0.21704,-0.48576 0.0568,-0.99735 0.27388,-0.5116 0.67696,-0.92501 -0.31006,0.0775 -0.73897,0.14469 -0.42892,0.062 -0.6718,0.0775 -0.20154,1.27641 -0.16536,1.86552 0.0362,0.58394 0.33589,1.89135 0.1292,0.56845 -0.27388,1.03353 -0.39791,0.45992 -0.58394,-0.1757 -0.38241,-0.8785 -0.29973,-2.2996 0.0827,-1.42627 0.23255,-2.34094 -0.27906,0.0103 -0.85266,-0.0879 -0.56845,-0.0982 -0.55294,-0.11886 0.28939,0.37724 0.54777,0.72347 0.25838,0.34107 -0.0413,0.69764 -0.12403,0.15503 -0.36691,0.31522 -0.23771,0.15503 -0.36173,0.0878 -0.13953,-0.0724 -0.10335,-0.21187 0.031,-0.13953 0.25838,-0.58911 0.0362,-0.12403 -0.21704,-0.43925 -0.25322,-0.31523 -0.36691,-0.59428 -0.11368,-0.28422 0.13953,-0.41858 0.25322,-0.13436 1.30741,0.0982 0.10852,0.031 0.3514,0.0207 0.24805,-0.0155 0.43409,-0.062 0.3979,-0.69246 0.83715,-1.1007 0.43925,-0.41342 0.42375,0.15502 -0.0465,0.19638 -0.19637,0.45476 -0.14469,0.25321 -0.18087,0.39274 0.96635,-0.1602 1.81385,-0.44959 0.5271,-0.26871 0.77514,-0.14469 0.25322,0.12402 -0.1912,0.6873 -0.13953,0.1757 -0.45992,0.44958 -0.31523,0.27389 -0.60462,0.58394 -0.28938,0.3049 -0.43924,0.60979 -0.14987,0.29972 0.0568,0.53226 z" style="stroke-width:0.26458332" id="path913" class="dUNpDLvF_5"></path>
      <path d="m 112.54179,135.39265 q 0.49609,-0.18087 0.97152,-0.40824 0.48059,-0.23255 0.75447,-0.61495 0.18604,-0.25322 0.38241,-0.37724 0.19637,-0.12403 0.25838,-0.0155 0.18604,0.0207 0.031,0.41857 -0.10852,0.37724 -0.23255,1.11622 -0.11885,0.73897 -0.21187,1.55029 -0.0879,0.80615 -0.11886,1.53996 -0.031,0.72863 0.0517,1.09037 0.3514,0.0465 0.72347,0.26872 0.37207,0.21704 0.66146,0.3979 0.72347,0.42892 0.39791,0.53227 -0.32557,0.0982 -0.57878,-0.0517 -0.40308,-0.20154 -0.87333,-0.31006 -0.47026,-0.10852 -0.81649,-0.12919 -0.35657,-0.0155 -0.48576,0.0517 -0.12402,0.062 -0.41858,0.19637 -0.18603,0.10336 -0.43408,0.18087 -0.24805,0.0724 -0.5271,-0.1912 -0.19637,-0.27389 0.0775,-0.48059 0.27388,-0.21188 0.52193,-0.30489 0.13436,-0.0672 0.26355,-0.10336 0.13436,-0.0413 0.49609,-0.13952 0.0103,0.005 -0.0155,-0.15503 -0.0258,-0.16537 -0.0103,-0.16537 -0.062,-0.43408 0.0775,-1.57613 0.13952,-1.14205 0.29972,-2.01538 -0.42375,0.3514 -0.81132,0.53227 -0.45992,0.25321 -0.69763,-0.20154 -0.24288,-0.45475 0.26355,-0.63562 z" style="stroke-width:0.26458332" id="path915" class="dUNpDLvF_6"></path>
      <path d="m 118.20553,135.8319 q -0.11369,-0.062 -0.27389,0.0155 -0.15503,0.0775 -0.21187,0.12919 -0.93018,0.57361 -0.92501,0.90434 0.005,0.32556 -0.25838,0.64079 -0.0724,0.22737 -0.11369,0.7028 -0.0413,0.47542 0,0.78031 0.0362,0.32556 0.35657,0.78548 0.32039,0.45476 0.70796,0.29973 0.57361,-0.0827 1.22473,-0.67696 0.65113,-0.59945 0.91985,-1.61231 0.21704,-0.43408 -0.093,-1.14205 -0.30489,-0.71313 -0.59945,-1.0697 -0.005,0.005 -0.0413,0.10852 -0.0362,0.0982 -0.0362,0.0982 -0.25322,0.34623 -0.65629,0.0362 z m -2.59933,3.49849 q -0.062,-0.2067 -0.0827,-0.34623 -0.0362,-0.30489 -0.0362,-0.5116 -0.0103,0 -0.0155,0.005 0.0207,-0.23771 0.0724,-0.65629 0.0465,-0.42374 0.22738,-0.85783 0.25321,-0.63562 0.69763,-1.20406 0.21704,-0.27905 0.53743,-0.5271 0.32556,-0.25321 0.72347,-0.33073 l -0.40824,-0.2067 q -0.44959,-0.1602 -0.64079,-0.44959 -0.1912,-0.28939 0.83199,-0.13436 1.27641,0.28939 2.13941,1.23507 0.86816,0.94051 0.76997,2.37712 -0.0362,0.51676 -0.34623,1.09554 -0.30489,0.57361 -0.76998,1.04903 -0.45992,0.47025 -1.01802,0.75447 -0.55811,0.28422 -1.09037,0.22221 -1.21957,-0.11885 -1.59164,-1.51412 z" style="stroke-width:0.26458332" id="path917" class="dUNpDLvF_7"></path>
      <path d="m 122.2983,135.8319 q -0.11369,-0.062 -0.27389,0.0155 -0.15503,0.0775 -0.21187,0.12919 -0.93018,0.57361 -0.92501,0.90434 0.005,0.32556 -0.25838,0.64079 -0.0724,0.22737 -0.11369,0.7028 -0.0413,0.47542 0,0.78031 0.0362,0.32556 0.35657,0.78548 0.32039,0.45476 0.70796,0.29973 0.57361,-0.0827 1.22474,-0.67696 0.65112,-0.59945 0.91984,-1.61231 0.21704,-0.43408 -0.093,-1.14205 -0.30489,-0.71313 -0.59945,-1.0697 -0.005,0.005 -0.0413,0.10852 -0.0362,0.0982 -0.0362,0.0982 -0.25322,0.34623 -0.65629,0.0362 z m -2.59933,3.49849 q -0.062,-0.2067 -0.0827,-0.34623 -0.0362,-0.30489 -0.0362,-0.5116 -0.0103,0 -0.0155,0.005 0.0207,-0.23771 0.0724,-0.65629 0.0465,-0.42374 0.22738,-0.85783 0.25321,-0.63562 0.69763,-1.20406 0.21704,-0.27905 0.53743,-0.5271 0.32557,-0.25321 0.72347,-0.33073 l -0.40824,-0.2067 q -0.44958,-0.1602 -0.64079,-0.44959 -0.1912,-0.28939 0.83199,-0.13436 1.27641,0.28939 2.13941,1.23507 0.86816,0.94051 0.76998,2.37712 -0.0362,0.51676 -0.34624,1.09554 -0.30489,0.57361 -0.76997,1.04903 -0.45993,0.47025 -1.01803,0.75447 -0.55811,0.28422 -1.09037,0.22221 -1.21957,-0.11885 -1.59164,-1.51412 z" style="stroke-width:0.26458332" id="path919" class="dUNpDLvF_8"></path>
    </g>
    <text xml:space="preserve" style="font-style:normal;font-variant:normal;font-weight:normal;font-stretch:normal;font-size:7.05555534px;line-height:1.25;font-family:'Sister Spray';-inkscape-font-specification:'Sister Spray, Normal';font-variant-ligatures:normal;font-variant-caps:normal;font-variant-numeric:normal;font-feature-settings:normal;text-align:center;letter-spacing:0px;word-spacing:0px;writing-mode:lr-tb;text-anchor:middle;fill:none;fill-opacity:1;stroke:white;stroke-width:0.26458332" x="106.37327" y="151.33812" id="text897"><tspan sodipodi:role="line" id="tspan895" x="106.37327" y="157.70686" style="stroke-width:0.26458332"></tspan></text>
    <g aria-label="=" style="font-style:normal;font-variant:normal;font-weight:normal;font-stretch:normal;font-size:5.64444447px;line-height:1.25;font-family:'Sister Spray';-inkscape-font-specification:'Sister Spray, Normal';font-variant-ligatures:normal;font-variant-caps:normal;font-variant-numeric:normal;font-feature-settings:normal;text-align:center;letter-spacing:0px;word-spacing:0px;writing-mode:lr-tb;text-anchor:middle;fill:none;fill-opacity:1;stroke:white;stroke-width:0.26458332" id="text901">
      <path d="m 116.04459,141.31673 q 0.19568,0.0276 0.40238,0.0469 0.0606,-0.0303 0.12954,-0.0303 h 0.0496 q 0.0551,0 0.14331,0.0165 l 0.0331,-0.0165 q 0.30592,0.0165 0.51538,0.0634 h 0.0799 q 0.0606,-0.0469 0.0965,-0.0469 0.0772,0.0469 0.20946,0.0469 h 0.19293 q 0.0799,0 0.0799,-0.0331 l 0.59531,0.0992 q 0.008,0 0.0634,-0.0165 0.14331,0.0165 0.17639,0.0303 l 0.0965,-0.0138 h 0.0496 q 0.11575,0.0303 0.12953,0.0303 h 0.14332 q 0.0717,0.0661 0.0799,0.0661 0.0882,-0.0165 0.12953,-0.0165 0.19844,0.0965 0.46578,0.12677 0,0.0165 0.12953,0.0827 h 0.0165 q 0.0469,0 0.0469,-0.0165 0.452,0.0965 0.48507,0.0965 0.0496,-0.0331 0.0799,-0.0331 0.14056,0.113 0.62563,0.15985 h 0.0661 q 0.0303,0 0.0303,0.0496 h 0.0965 q 0.19017,0.12403 0.37208,0.19293 0,0.0165 0.0165,0.0165 h 0.0303 q 0.0358,0 0.0661,-0.0165 0.0496,0 0.22325,0.15985 h 0.14607 q 0.0827,0.10749 0.25631,0.14607 0.0496,0.0551 0.19293,0.0965 0,0.0854 0.24253,0.14608 0,0.0386 0.17639,0.0965 0.0303,0.0799 0.35278,0.25631 0,0.11576 0.25907,0.25632 0.0717,0.0772 0.28939,0.226 0,0.0441 0.30592,0.41892 0,0.12954 0.20947,0.23978 0,0.113 0.113,0.113 l 0.0138,0.0331 -0.0303,0.0634 0.14331,0.17639 q 0.13781,0.0689 0.24254,0.27561 0.091,0.17639 0.15985,0.17639 0.0551,0.0331 0.113,0.19292 0,0.14056 0.19293,0.28939 v 0.0331 l -0.0165,0.0799 0.0496,0.113 -0.0165,0.0799 q 0,0.0193 0.0965,0.12953 v 0.0165 q -0.0965,0.0717 -0.0965,0.19292 l -0.0331,0.0138 q 0.0331,0.13781 0.0331,0.17915 -0.42168,0.21773 -0.46577,0.27285 -0.0276,0.0772 -0.27561,0.12954 -0.0992,0.0909 -0.44924,0.14331 -0.0413,0 -0.0799,0.15985 -0.16261,0 -0.16261,0.0965 0,0.0248 -0.0468,0.0496 h -0.0496 q -0.0524,0 -0.0634,-0.113 h -0.0331 q 0,0.0496 -0.0303,0.0496 h -0.0662 q -0.0468,0 -0.12677,-0.0496 -0.0193,0 -0.0496,0.0165 -0.30593,0 -0.40239,-0.0965 l -0.0303,0.0165 h -0.0496 q -0.0248,0 -0.0799,-0.113 l -0.0799,0.0469 h -0.0331 l -0.0634,-0.11024 q -0.0937,0 -0.12954,-0.14607 -0.0661,-0.113 -0.113,-0.113 -0.0882,-0.0165 -0.15985,-0.23978 -0.0965,0 -0.12954,-0.20946 -0.0331,0 -0.0331,-0.0165 l -0.0303,0.0165 q -0.0717,0 -0.113,-0.24254 0.0165,-0.0854 0.0165,-0.14331 v -0.0165 q 0,-0.0358 -0.0165,-0.0661 0.0303,-0.0524 0.0303,-0.0799 -0.0303,-0.0358 -0.0469,-0.28939 0.0165,-0.0303 0.0165,-0.0468 -0.0165,-0.0276 -0.0165,-0.0827 0.0634,-0.0221 0.0634,-0.0469 v -0.0634 q 0,-0.0909 -0.113,-0.17914 0,-0.19017 -0.14332,-0.25632 l -0.0965,-0.19293 -0.0331,0.0165 q -0.0965,-0.0331 -0.0965,-0.0661 l 0.0331,-0.0138 q 0.0524,0.0303 0.0965,0.0303 v -0.0303 q -0.16261,-0.11576 -0.16261,-0.12954 l -0.0303,0.0165 q -0.0331,0 -0.0331,-0.0331 0.0165,-0.0303 0.0165,-0.0469 -0.17639,-0.0661 -0.19293,-0.0661 -0.0276,-0.0579 -0.12953,-0.12678 -0.0524,0.0303 -0.0799,0.0303 -0.15985,-0.113 -0.19292,-0.25631 -0.20395,-0.0689 -0.20946,-0.0799 l -0.0634,0.0303 q -0.14056,-0.0965 -0.20947,-0.0965 -0.0165,-0.0799 -0.0331,-0.0799 -0.0551,0.0165 -0.0634,0.0165 -0.0634,0 -0.0634,-0.0799 h -0.0661 q -0.0358,0 -0.32247,-0.16261 -0.1626,0.0165 -0.25631,0.0165 -0.0248,-0.0661 -0.35278,-0.12954 -0.0854,0.0165 -0.0965,0.0165 -0.0661,-0.0221 -0.0661,-0.0469 l -0.113,0.0165 q -0.0386,0 -0.17638,-0.0827 -0.0165,0 -0.0469,0.0165 -0.0799,0 -0.67799,-0.15985 l -0.6091,-0.0799 -0.14607,0.0165 q -0.20119,-0.0165 -0.35278,-0.0827 -0.0579,0.0331 -0.14607,0.0331 l -0.33624,-0.113 q -0.0165,0 -0.0165,0.0165 -0.14607,-0.0193 -0.14607,-0.0469 l -0.0965,0.0138 -0.113,-0.0138 q -0.0276,0.0138 -0.0634,0.0138 -0.0524,-0.0303 -0.0799,-0.0303 l -0.0331,0.0165 -0.20946,-0.0496 q -0.0744,0.0331 -0.14332,0.0331 l -0.0965,-0.0165 q -0.0138,0 -0.0965,0.0165 -0.0606,0 -0.24254,-0.0331 l -0.0799,0.0331 q -0.12127,-0.0331 -0.12954,-0.0331 l -0.113,0.0165 -0.14331,-0.0165 -0.0661,0.0165 q -0.0579,-0.0331 -0.12678,-0.0331 h -0.19292 l -0.0662,0.0496 h -0.0303 l -0.0661,-0.0496 q -0.113,0.0165 -0.12678,0.0165 -0.0551,-0.0331 -0.0965,-0.0331 -0.23703,0 -0.59532,0.0496 -0.20395,-0.0331 -0.226,-0.0331 -0.0661,0.0331 -0.0965,0.0331 l -0.0799,-0.0496 q -0.0386,0 -0.0662,0.0165 -0.13505,-0.0165 -0.22324,-0.0165 -0.0331,0 -0.16261,0.0331 l -0.14332,-0.0165 q -0.18465,0.0165 -0.20946,0.0331 l -0.0331,-0.0165 -0.20946,0.0496 q -0.0772,0 -0.27285,-0.0496 h -0.0165 q -0.0772,0 -0.15985,0.0496 -0.0882,-0.0165 -0.12954,-0.0165 -0.0468,0 -0.17639,0.0799 -0.16812,-0.0165 -0.19292,-0.0165 -0.7717,0.0496 -0.7717,0.12954 h -0.0165 q -0.0551,0 -0.339,-0.0165 0,0.0221 -0.0469,0.0469 h -0.0661 l -0.15985,-0.0469 q -0.0965,0.006 -0.0965,0.0331 l -0.40239,-0.0331 q -0.0579,0.0331 -0.12954,0.0331 l -0.0303,-0.0165 -0.0827,0.0469 h -0.0634 q -0.13505,0 -0.24254,-0.0634 -0.16812,0.0634 -0.41617,0.0965 -0.14056,-0.0165 -0.24253,-0.0165 h -0.0634 q -0.113,0.006 -0.113,0.0331 l -0.15985,-0.0165 h -0.24254 q -0.0441,0 -0.0965,0.0331 -0.14332,-0.0165 -0.17639,-0.0165 -0.091,0.0303 -0.35553,0.0469 0,-0.0303 -0.0303,-0.0303 l -0.61185,0.11025 h -0.0661 l -0.0634,0.0496 h -0.14332 q -0.0165,0 -0.12954,0.0331 -0.0331,0 -0.0331,-0.0165 l -0.113,0.0165 h -0.15985 q -0.25356,0.0551 -0.339,0.0965 -0.0882,-0.0165 -0.12678,-0.0165 -0.10473,0.0469 -0.45199,0.113 h -0.15986 l -0.0496,0.0303 h -0.15985 l -0.113,0.0331 q 0,-0.0331 -0.0331,-0.0331 -0.29214,0.0331 -0.41617,0.0827 -0.0276,0 -0.19292,-0.0165 0,0.0276 -0.19293,0.0799 -0.0827,-0.0331 -0.113,-0.0331 -0.0248,0 -0.0965,0.0799 -0.0524,-0.0303 -0.0799,-0.0303 l -0.56499,0.0965 q 0,0.0303 -0.0799,0.0303 l -0.0799,-0.0469 q -0.20947,0.14331 -0.24254,0.14331 l -0.0303,-0.0138 -0.14607,0.0138 -0.14331,-0.0138 q -0.18466,0.0579 -0.51539,0.11025 0,0.022 -0.14607,0.0496 l -0.113,-0.0165 q -0.0799,0.0661 -0.40239,0.0965 0,0.0165 -0.0799,0.0331 -0.0276,-0.0165 -0.0634,-0.0165 -0.609097,0.15158 -0.675243,0.19292 0,0.0165 -0.04961,0.0331 l -0.09646,-0.0165 h -0.01654 q -0.06063,0.0965 -0.07993,0.0965 -0.192925,-0.0331 -0.209462,-0.0331 l -0.272851,0.0799 q -0.03032,-0.0138 -0.04961,-0.0138 -0.151584,0.0799 -0.38585,0.0799 h -0.01378 q -0.01378,0 -0.09646,0.0965 H 98.28443 q -0.04134,0 -0.322461,0.14332 l -0.07993,-0.0138 q -0.121268,0.0303 -0.225999,0.0303 h -0.129535 q 0,0.0799 -0.595313,0.1626 h -0.06339 q -0.0441,0.0469 -0.209462,0.0799 l -0.09646,-0.0165 q -0.314193,0.0441 -0.369314,0.0799 l -0.06339,-0.0165 q -0.176389,0.0606 -0.209462,0.113 -0.05788,-0.0165 -0.06614,-0.0165 l -0.143316,0.0165 -0.113,-0.0165 q -0.181901,0.0744 -0.322461,0.0965 l -0.07993,-0.0165 q -0.03583,0 -0.322461,0.0992 -0.146072,0 -0.38585,0.0965 l -0.03032,-0.0165 q 0,0.0441 -0.741385,0.113 -0.08268,-0.0165 -0.192925,-0.0165 0,0.0358 -0.07993,0.0469 v -0.0165 q -0.112999,0.0661 -0.162609,0.0661 h -0.03032 q -0.01654,0 -0.01654,-0.0165 l -0.03307,0.0165 H 93.08647 q -0.115755,0.0469 -0.416168,0.0634 -0.05788,0.0386 -0.37207,0.0799 0,0.0331 -0.192925,0.0496 0,0.0165 -0.01654,0.0165 h -0.126779 q -0.0689,0 -0.179145,-0.0165 -0.20395,0.0441 -0.289388,0.0965 l -0.110243,-0.0165 h -0.09646 l -0.388607,0.0799 q -0.02756,-0.0165 -0.06339,-0.0165 -0.157096,0.0496 -0.225998,0.0496 l -0.03032,-0.0165 -0.564995,0.12953 -0.09646,-0.0165 q -0.01378,0.0469 -0.09646,0.0469 h -0.01654 q -0.112999,0 -0.176389,-0.0303 -0.05788,0 -0.336241,0.0469 l -0.03307,-0.0165 q -0.482314,0.0717 -0.482314,0.12954 0,0.0165 -0.03307,0.0165 -0.03858,0 -0.126779,-0.0165 -0.727604,0.15985 -1.190625,0.24253 l -0.08268,-0.0331 q -0.132292,0.0634 -0.143316,0.0634 l -0.03307,-0.0165 q -0.333486,0.0331 -0.418924,0.0827 -0.110243,-0.0165 -0.176389,-0.0165 -0.07993,0.0469 -0.129535,0.0469 h -0.06339 q -0.04685,0 -0.04685,-0.0138 l -0.08268,0.0138 h -0.223242 q -0.07441,0.0827 -0.289388,0.0827 0,0.008 -0.04961,0.0303 -0.01654,0 -0.04685,-0.0165 -0.15434,0 -0.774457,0.0827 l -0.03032,-0.0165 q -0.212218,0.0165 -0.355534,0.0469 -0.779969,-0.0634 -0.94809,-0.14331 -0.394119,-0.14056 -0.465777,-0.226 -0.190169,-0.10749 -0.338997,-0.27285 v -0.16261 q 0.101974,-0.59531 0.209461,-0.59531 0.162609,-0.11852 0.192926,-0.22325 0.192925,-0.0827 0.192925,-0.17914 0.159853,-0.0827 0.369314,-0.31971 0.09646,0 0.305925,-0.16261 0,-0.0469 0.192925,-0.0634 0.101975,-0.15985 0.355534,-0.27285 0.347266,-0.33899 0.385851,-0.33899 h 0.01654 l 0.09646,0.0165 q 0.388607,-0.35829 0.738628,-0.41892 0,-0.0909 0.259072,-0.12954 0.126779,-0.0799 0.126779,-0.11024 h 0.01654 q 0.03307,0 0.03307,0.0138 0.278364,0 0.515387,-0.0965 0.755165,0.0276 0.755165,0.0965 0.300412,0 0.498849,0.19568 0.209462,0 0.209462,0.31971 0.03583,0 0.09646,0.226 0,0.25631 -0.225998,0.33899 -0.21773,0.15159 -0.385851,0.17639 -0.165365,0.10473 -0.225998,0.17639 h -0.159853 q -0.104731,0.15985 -0.225998,0.15985 -0.01654,0 -0.01654,-0.0138 -0.137804,0.0965 -0.159853,0.12678 v 0.0661 q 0,0.0358 0.07993,0.0469 0.112999,-0.0331 0.176389,-0.0331 l 0.03307,0.0165 0.256315,-0.0799 0.162609,-0.0165 q 0.01654,0 0.01654,0.0165 l 0.07993,-0.0165 h 0.159853 q 0.07166,0 0.548459,-0.113 0.173633,0 0.289388,-0.0138 0.08268,0.0138 0.159853,0.0138 0.10473,-0.0303 0.146072,-0.0303 v 0.0165 q 0.04685,-0.0331 0.206705,-0.0661 0.01378,0 0.09922,0.0165 0.03032,-0.0165 0.04685,-0.0165 l 0.03307,0.0165 q 0.07441,-0.0634 0.49885,-0.0965 0.02481,0.0193 0.159853,0.0331 0.0689,-0.0276 0.482313,-0.0827 0,-0.0138 0.06615,-0.0138 0.08268,0.0138 0.09646,0.0138 0.159853,-0.0634 0.239779,-0.0634 l 0.06339,0.0165 q 0.08268,-0.0496 0.112999,-0.0496 0.04961,0 0.305924,0.0165 0.07993,0 0.07993,-0.0303 l 0.08268,0.0138 0.319705,-0.0799 0.112999,0.0165 q 0.112999,-0.0331 0.112999,-0.0469 l 0.07993,0.0138 q 0.110243,0 0.225999,-0.0799 0.02756,0.0165 0.06339,0.0165 l 0.355534,-0.0799 0.03032,-0.0165 0.09646,0.0165 h 0.01654 l 0.385851,-0.0799 q 0.01929,0 0.04961,0.0165 0.121268,0 0.465777,-0.113 0.173633,0 0.385851,-0.0661 l 0.03307,0.0165 q 0.283876,-0.0965 0.322461,-0.0965 l 0.09646,0.0165 q 0.01378,0 0.09646,-0.0634 h 0.01654 q 0.101975,0 0.206706,-0.0165 0.06615,0.0165 0.112999,0.0165 0,-0.0248 0.06615,-0.0661 h 0.209462 l 0.110243,-0.0634 q 0.137804,0.0165 0.209462,0.0165 0.168121,-0.0386 0.259071,-0.0799 l 0.07993,0.0138 q 0.168121,-0.0303 0.176389,-0.0303 v 0.0165 q 0.01929,0 0.242535,-0.0965 0.104731,0 0.159852,-0.0165 l 0.07993,0.0165 q 0.267339,-0.0331 0.37207,-0.0965 0.245291,-0.0496 0.416167,-0.11299 0.01654,0 0.04961,0.0165 0.245291,-0.011 0.336241,-0.0827 0.383095,-0.0551 0.418924,-0.0799 0,-0.0165 0.112999,-0.0634 l 0.06339,0.0165 q 0.305924,-0.0661 0.628385,-0.16261 0.09646,0 0.256315,-0.0634 l 0.06615,0.0165 q 0.07993,-0.0331 0.336241,-0.0661 l 0.112999,0.0165 q 0.04961,0 0.09646,-0.0965 l 0.0799,0.0165 h 0.0496 l 0.69178,-0.12953 q 0,-0.0744 0.51539,-0.0965 0,-0.0276 0.11299,-0.0303 h 0.15986 q 0.0524,-0.0661 0.27285,-0.0965 h 0.0331 q 0.0358,0 0.0634,0.0138 0.12678,-0.0193 0.17639,-0.0469 0.0909,0.0165 0.12954,0.0165 0,-0.0606 0.7717,-0.14607 0.10748,-0.0634 0.16261,-0.0634 h 0.12677 q 0.0992,0 0.38861,-0.0634 l 0.14332,0.0138 q 0.12953,-0.0413 0.12953,-0.0634 l 0.0965,0.0165 q 0.69177,-0.0441 0.69177,-0.14607 0.113,0.0331 0.12954,0.0331 0,-0.0441 0.41616,-0.0799 l 0.0331,0.0165 q 0.0579,-0.0331 0.12953,-0.0331 h 0.0634 q 0.0358,0 0.0634,0.0165 0.0661,-0.0248 0.0661,-0.0496 l 0.0799,0.0165 q 0.0551,0 0.14332,-0.0799 0.16261,0.0165 0.24253,0.0165 0.30042,0 0.35278,-0.0965 l 0.0331,-0.0165 q 0.0634,0.0248 0.0634,0.0468 0.2508,-0.0468 0.30592,-0.0468 h 0.0331 q 0.0661,0 0.12954,0.0165 0.0386,0 0.35278,-0.0496 0.0854,0.0165 0.0965,0.0165 l 0.43546,-0.0799 h 0.0303 q 0.0386,0 0.0661,0.0165 0.11851,-0.0496 0.20946,-0.0496 0.0165,0 0.0469,0.0165 0.008,0 0.0661,-0.0165 0.0827,0.0165 0.0965,0.0165 l 0.96462,-0.12954 0.0331,0.0165 0.0303,-0.0165 0.0799,0.0165 q 0.2067,-0.0165 0.226,-0.0303 l 0.0965,0.0138 h 0.0165 q 0.1378,0 0.19292,-0.0468 h 0.15985 q 0.24529,-0.0634 0.25907,-0.0634 h 0.19293 l 0.0468,-0.0331 h 0.0331 q 0.0689,0.0469 0.12953,0.0469 l 0.0634,-0.0303 q 0.0276,0 0.0965,0.0303 l 0.113,-0.0303 q 0.0882,0.0165 0.14607,0.0165 0.25081,-0.0496 0.31971,-0.0496 0.0165,0.0496 0.0965,0.0496 0.0248,0 0.226,-0.0165 v 0.0165 q 0.0772,-0.0331 0.19293,-0.0331 0.0276,0 0.0965,0.0331 0.11024,-0.0165 0.17639,-0.0165 h 0.0661 v -0.0331 h 0.0303 l 0.0661,0.0496 0.19292,-0.0331 q 0.008,0 0.0634,0.0165 0.0303,-0.0165 0.0496,-0.0165 0.0165,0 0.0469,0.0165 0.20947,-0.0193 0.40239,-0.0496 0.28112,0.0331 0.35278,0.0331 0,-0.0248 0.0661,-0.0661 0.18191,0.0331 0.28939,0.0331 0.14607,-0.0331 0.15986,-0.0331 0.0882,0.0165 0.12953,0.0165 0,-0.0221 0.0634,-0.0469 0.10198,0.0469 0.14607,0.0469 0.0358,0 0.0634,-0.0165 0.11025,0.0165 0.17639,0.0165 h 0.0331 q 0.0689,0 0.12954,-0.0303 0.0634,0.011 0.0634,0.0303 0.0854,-0.0303 0.17639,-0.0303 l 0.37207,0.0469 q 0.0909,-0.0193 0.17639,-0.0634 0.0827,0.0165 0.0965,0.0165 0.11576,-0.0165 0.14332,-0.0331 z m -27.637938,2.44464 h 0.01378 q 0.03307,0.006 0.03307,0.0331 v 0.0331 q 0,0.0303 -0.03307,0.0303 h -0.01378 q -0.02481,0 -0.04961,-0.0469 0,-0.0248 0.04961,-0.0496 z m 9.748242,1.12723 0.01654,0.0331 h -0.04961 q 0.0055,-0.0331 0.03307,-0.0331 z m -11.454253,0.0965 v 0.0469 h 0.03307 q 0.03032,0 0.03032,-0.0303 v -0.0496 q -0.03859,0.0331 -0.06339,0.0331 z m 38.516169,1.76941 h 0.0303 q 0.0276,0 0.0661,0.0634 v 0.0165 l -0.12953,0.113 h -0.0469 q -0.0331,0 -0.0331,-0.0469 0.0606,-0.12403 0.113,-0.14607 z m 0.0469,0.22599 h 0.0165 q 0.0965,0.008 0.0965,0.0469 v 0.0165 q 0,0.0248 -0.0469,0.0496 -0.0882,0 -0.113,-0.0661 0,-0.0221 0.0469,-0.0469 z m -0.81855,0.0965 h 0.0138 q 0.0248,0 0.0496,0.0469 v 0.0165 q 0,0.0331 -0.0331,0.0331 h -0.0303 q -0.0248,0 -0.0496,-0.0496 0,-0.0221 0.0496,-0.0469 z m 0.67524,0.0634 h 0.0165 q 0.022,0 0.0469,0.0496 v 0.0138 q 0,0.0248 -0.0469,0.0496 -0.0661,-0.0248 -0.0661,-0.0496 v -0.0138 q 0,-0.0248 0.0496,-0.0496 z" style="stroke-width:0.26458332" id="path922" class="dUNpDLvF_9"></path>
    </g>
  </g>
<style data-made-with="vivus-instant">.dUNpDLvF_0{stroke-dasharray:34 36;stroke-dashoffset:35;animation:dUNpDLvF_draw 2000ms linear 0ms forwards;}.dUNpDLvF_1{stroke-dasharray:31 33;stroke-dashoffset:32;animation:dUNpDLvF_draw 2000ms linear 111ms forwards;}.dUNpDLvF_2{stroke-dasharray:31 33;stroke-dashoffset:32;animation:dUNpDLvF_draw 2000ms linear 222ms forwards;}.dUNpDLvF_3{stroke-dasharray:26 28;stroke-dashoffset:27;animation:dUNpDLvF_draw 2000ms linear 333ms forwards;}.dUNpDLvF_4{stroke-dasharray:24 26;stroke-dashoffset:25;animation:dUNpDLvF_draw 2000ms linear 444ms forwards;}.dUNpDLvF_5{stroke-dasharray:34 36;stroke-dashoffset:35;animation:dUNpDLvF_draw 2000ms linear 555ms forwards;}.dUNpDLvF_6{stroke-dasharray:24 26;stroke-dashoffset:25;animation:dUNpDLvF_draw 2000ms linear 666ms forwards;}.dUNpDLvF_7{stroke-dasharray:33 35;stroke-dashoffset:34;animation:dUNpDLvF_draw 2000ms linear 777ms forwards;}.dUNpDLvF_8{stroke-dasharray:33 35;stroke-dashoffset:34;animation:dUNpDLvF_draw 2000ms linear 888ms forwards;}.dUNpDLvF_9{stroke-dasharray:103 105;stroke-dashoffset:104;animation:dUNpDLvF_draw 2000ms linear 1000ms forwards;}@keyframes dUNpDLvF_draw{100%{stroke-dashoffset:0;}}@keyframes dUNpDLvF_fade{0%{stroke-opacity:1;}94.44444444444444%{stroke-opacity:1;}100%{stroke-opacity:0;}}</style></svg>
